<svg width="717" height="431" viewBox="0 0 717 431" fill="none" xmlns="http://www.w3.org/2000/svg">
<path d="M251.708 84.6179L210.985 278.159C205.731 301.367 200.038 324.136 193.47 339.9C174.204 385.439 139.174 402.954 90.5693 402.954C44.5922 402.954 1.68035 383.25 0.366717 332.894H37.5862C39.7756 363.107 66.0482 370.113 94.5102 370.113C151.872 370.113 164.133 324.136 175.517 279.035L174.642 278.159C158.44 302.68 132.605 312.752 104.143 312.752C48.0953 312.752 19.1954 273.343 19.1954 219.046C19.1954 152.489 63.4209 79.3633 136.984 79.3633C170.263 79.3633 201.79 97.3163 208.796 125.34V126.216H209.672L216.678 84.6179H251.708ZM56.4149 219.046C56.4149 251.449 74.8057 279.911 112.025 279.911C168.073 279.911 194.346 216.857 194.346 171.317C194.346 135.849 175.517 112.204 136.546 112.204C84.439 112.204 56.4149 177.448 56.4149 219.046ZM338.503 311L354.267 238.313H218.087L225.531 201.531L409.439 0.545564H440.966L398.054 205.472H439.215L432.647 238.313H391.486L375.723 311H338.503ZM389.297 64.9134L260.999 205.472H360.835L390.173 64.9134H389.297ZM640.929 156.43H603.709C603.709 128.406 585.318 112.204 555.981 112.204C498.619 112.204 467.967 169.128 467.967 218.608C467.967 253.638 481.98 283.414 524.016 283.414C555.981 283.414 579.626 265.023 590.135 236.999H627.355C613.78 287.793 576.561 316.255 524.016 316.255C462.275 316.255 430.748 279.911 430.748 218.608C430.748 146.796 474.973 79.3633 555.981 79.3633C607.212 79.3633 639.177 103.447 640.929 156.43Z" fill="black"/>
<path d="M645.964 112V84.868H649.574V108.96H663.938V112H645.964ZM678.631 88.136L674.033 100.79H683.229L678.707 88.136H678.631ZM666.129 112L676.731 84.868H680.721L691.323 112H687.333L684.369 103.83H672.893L669.853 112H666.129Z" fill="black"/>
</svg>
